<svg width="18" height="19" viewBox="0 0 18 19" fill="none" xmlns="http://www.w3.org/2000/svg">
<path d="M13.6032 18.5498C12.9176 18.3344 12.1803 18.2182 11.5565 17.89C6.71033 15.3448 3.00868 11.6493 0.504823 6.79822C-0.689535 4.4838 0.320943 1.7335 2.63748 0.760897C3.52079 0.389974 4.23913 0.470312 4.84748 1.30446C5.61049 2.35057 6.42506 3.36419 7.25338 4.36073C7.91328 5.15556 7.86516 5.82391 7.12277 6.55037C5.97825 7.66997 5.95591 7.74518 7.04888 8.95709C7.93906 9.94337 8.95985 10.8134 9.91705 11.7416C10.5409 12.3467 11.0667 12.2595 11.6802 11.6612C12.9708 10.4049 13.1135 10.4271 14.5467 11.5347C15.4523 12.2356 16.3442 12.9569 17.2705 13.6304C18.0559 14.2013 18.1538 14.8987 17.817 15.7397C17.1846 17.3225 15.43 18.4592 13.6032 18.5481V18.5498Z" fill="#0F1D00"/>
</svg>
